/* XPM */
static char *graphic[] = {
/* width height num_colors chars_per_pixel */
"64 64 160 2", 
/* colors */
"   c None",
".  c #546E7A",
"X  c #546E7A",
"o  c #546E7A",
"O  c #546E7A",
"+  c #546E7A",
"@  c #546E7A",
"#  c #546E7A",
"$  c #546E7A",
"%  c #546E7A",
"&  c #546E7A",
"*  c #546E7A",
"=  c #546E7A",
"-  c #546E7A",
";  c #4A6672",
":  c #556F7B",
">  c #546E7A",
",  c #546E7A",
"<  c #546E7A",
"1  c #546E7A",
"2  c #617A84",
"3  c #82959E",
"4  c #546E7A",
"5  c #556F7A",
"6  c #546E7A",
"7  c #546E7A",
"8  c #546E7A",
"9  c #617A85",
"0  c #546E7A",
"q  c #546E7A",
"w  c #556F7B",
"e  c #546E7A",
"r  c #546E7A",
"t  c #546E7A",
"y  c #536E7A",
"u  c #546E7A",
"i  c #546E7A",
"p  c None",
"a  c None",
"s  c #546E7A",
"d  c #546E7A",
"f  c #546E7A",
"g  c None",
"h  c #546E7A",
"j  c #546E7A",
"k  c #5A737F",
"l  c #5A737F",
"z  c #546E7A",
"x  c #546E7A",
"c  c None",
"v  c None",
"b  c #546E7A",
"n  c #546E7A",
"m  c #546E7A",
"M  c #83959E",
"N  c #546E7A",
"B  c #546E7A",
"V  c #546E7A",
"C  c #496571",
"Z  c #546E7A",
"A  c #546E7A",
"S  c None",
"D  c #546E7A",
"F  c #546E7A",
"G  c #546E7A",
"H  c #627A85",
"J  c #546E7A",
"K  c #546E7A",
"L  c #546E7A",
"P  c #546E7A",
"I  c #546E7A",
"U  c #546E7A",
"Y  c #546E7A",
"T  c #546E7A",
"R  c #546E7A",
"E  c #546E7A",
"W  c #546E7A",
"Q  c None",
"!  c None",
"~  c None",
"^  c None",
"/  c None",
"(  c None",
")  c #43606D",
"_  c None",
"`  c None",
"'  c None",
"]  c None",
"[  c #4E6975",
"{  c #506A77",
"}  c #43606E",
"|  c None",
" . c None",
".. c #57717C",
"X. c None",
"o. c #57717D",
"O. c None",
"+. c None",
"@. c None",
"#. c None",
"$. c None",
"%. c None",
"&. c None",
"*. c None",
"=. c #57717D",
"-. c None",
";. c None",
":. c None",
">. c None",
",. c None",
"<. c None",
"1. c #556E7A",
"2. c #486471",
"3. c None",
"4. c None",
"5. c #617985",
"6. c None",
"7. c #536D79",
"8. c None",
"9. c None",
"0. c #6C828C",
"q. c #516C78",
"w. c #536D7A",
"e. c None",
"r. c #425F6C",
"t. c None",
"y. c None",
"u. c None",
"i. c #4D6874",
"p. c None",
"a. c #425F6D",
"s. c None",
"d. c None",
"f. c None",
"g. c #4D6875",
"h. c None",
"j. c None",
"k. c None",
"l. c None",
"z. c None",
"x. c None",
"c. c None",
"v. c None",
"b. c None",
"n. c None",
"m. c None",
"M. c None",
"N. c None",
"B. c None",
"V. c #546E7A",
"C. c #546E7A",
"Z. c #546E7A",
"A. c #546E7A",
"S. c #526C78",
"D. c #546E7A",
"F. c #546E7A",
"G. c #546E7A",
"H. c None",
"J. c #546E7A",
"K. c #546E7A",
/* pixels */
"                                                $.t.A.1 u x N G G N x u 1 A.t.$.                                                ",
"                                          6.K.f W W W W W W W W W W W W W W W W f K.6.                                          ",
"                                    ' v.j W W W W W W W W W W W W W W W W W W W W W W j v.'                                     ",
"                                _ D.G W W W W W W W W W W W W W W W W W W W W W W W W W W G D._                                 ",
"                              x.A W W W W W W W W W W W W W W W W W W W W W W W W W W W W W W A x.                              ",
"                          &.r W W W W W W W W W W W W W W W W W W W W W W W W W W W W W W W W W W r &.                          ",
"                        f.E W W W W W W W W W W W W W W W W W W W W W W W W W W W W W W W W W W W W E f.                        ",
"                      K.W W W W W W W W W W W W W W W W W W W W W W W W W W W W W W W W W W W W W W W W K.                      ",
"                    1 W W W W W W W W W W W W W W W W W W W W W W W W W W W W W W W W W W W W W W W W W W 1                     ",
"                  8 W W W W W W W W W W W W W W W W W W W W W W W W W W W W W W W W W W W W W W W W W W W W 8                   ",
"                4 W W W 7.{ 7.W W W W W W W W W W W W W W W W W W W W W W W W W W W W W W W W W W 7.{ 7.W W W 4                 ",
"              . W w W ; g.=.: V Z Z Z Z Z Z Z Z Z Z Z Z Z Z Z Z Z Z Z Z Z Z Z Z Z Z Z Z Z Z Z Z V : =.g.; y w W .               ",
"            s.W w q.a.2 j.a d.h./ / / / / / / / / / / / / / / / / / / / / / / / / / / / / / / / h.d.a ;.9 a.q.w W s.            ",
"           .W W 7.C 3                                                                                     M C 7.W W  .          ",
"          s W 1.} 0.                                                                                        0.) 1.W s           ",
"        k.W W S.2.c                                                                                         c 2.S.W W k.        ",
"      ^ I W W [ l                                                                                             l [ W W U ^       ",
"      G.W W W 7.o.p %.M.S :.:.:.:.:.:.:.:.:.:.:.:.:.:.:.:.:.:.:.:.:.:.:.:.:.:.:.:.:.:.:.:.:.:.:.:.:.:.S M.%.p o.7.W W W G.      ",
"    ( R W W W 1.7.g.7.w W W W W W W W W W W W W W W W W W W W W W W W W W W W W W W W W W W W W W W W W 5 7.g.7.1.W W W R (     ",
"    c.W W W W W L O X X X X X X O W W W W W W W W W t . X X * W 6 . X X . t W W W W W W W W W O X X X X X X O L W W W W W c.    ",
"    m W W W W W N                 N W W W W W W W W e.        W           >.W W W W W W W W N                 N W W W W W m     ",
"  3.W W W W W W Z ^             ^ Z W W W W W W W W z.      | Y $ v.b.b.v.6 W W W W W W W W Z ^             ^ Z W W W W W W 3.  ",
"  X W W W W W W Z /             / Z W W W W W W W W z.      ` K W W W W W W W W W W W W W W N                 N W W W W W W X   ",
"  z W W W W W W Z /             / Z W W W W W W W W z.      ] L W W W W W W W W W W W W W W J N.b.n.n.n.n.b.N.J W W W W W W z   ",
"X.W W W W W W W Z /             / Z W W W W W W W W z.      ` K W W W W W W W W W W W W W W W W W W W W W W W W W W W W W W W X.",
"u.W W W W W W W Z ^             ^ Z W W W W W W W W z.      | T K.k.l.l.k.- W W W W W W W W W W W W W W W W W W W W W W W W W u.",
"F.W W W W W W W N                 N W W W W W W W W e.        W !         <.W W W W W W W W W W W W W W W W W W W W W W W W W F.",
"4 W W W W W W W L % @ # # # # @ & W W W W W W W W W i + # @ > W t , < < > h W W W W W W W W W W W W W W W W W W W W W W W W W 4 ",
"i W W W W W W W W W W W W W W W W Y L L L L L L L L W W W W W L W W W W W W L L L L L L L L L L L L L L L L P E W W W W W W W i ",
"b W W W W W W W A  .' ] ] ] ] ] ] ] ] ] ] ] ] ] ] ] ] ] ] ] ] ] ] ] ] ] ] ] ] ] ] ] ] ] ] ] ] ] ] ] ] ] ] '  .A W W W W W W W b ",
"Z W W W W W W W B                                                                                             B W W W W W W W Z ",
"G W W W W W W W Z /                                                                                         / Z W W W W W W W G ",
"G W W W W W W W Z /                                                                                         / Z W W W W W W W G ",
"Z W W W W W W W B                                                                                             B W W W W W W W Z ",
"b W W W W W W W D -.O.O.O.O.O.O.O.O.O.O.O.O.O.O.O.O.O.O.O.O.O.O.O.O.O.O.O.O.O.O.O.O.O.O.O.O.O.O.O.O.O.O.O.O.-.D W W W W W W W b ",
"i W W W W W W W W W W W W W W W W W W W W W W W W W W W W W W W W W W W W W W W W W W W W W W W W W W W W W W W W W W W W W W i ",
"4 W W W W W W W W W W W W W W W W W W W W W W W W W 0 n.m.m.m.m.m.m.m.m.n.0 W W W W W W W W W # o O O O O o @ L W W W W W W W 4 ",
"F.W W W W W W W W W W W W W W W W W W W W W W W W W B.+.@.@.        O.@.+.V.W W W W W W W W N                 N W W W W W W W F.",
"u.W W W W W W W W W W W W W W W W W W W W W W W W W q F.G.G.G W W P J.G.F.7 W W W W W W W W Z ^             ^ Z W W W W W W W u.",
"X.W W W W W W W W W W W W W W W W W W W W W W W W W t.      K W W W       9.W W W W W W W W Z /             / Z W W W W W W W X.",
"  z W W W W W W J N.b.n.n.n.n.b.N.J W W W W W W W W z.    | = y.t.> #.    p.W W W W W W W W Z /             / Z W W W W W W z   ",
"  X W W W W W W N                 N W W W W W W W W z.    *.Z.Q Q C.,.    p.W W W W W W W W Z /             / Z W W W W W W X   ",
"  3.W W W W W W Z ^             ^ Z W W W W W W W W z.      n W W F ~     p.W W W W W W W W Z ^             ^ Z W W W W W W 3.  ",
"    m W W W W W N                 N W W W W W W W W e.      z W W A       4.W W W W W W W W N                 N W W W W W m     ",
"    c.W W W W W L O X X X X X X O W W W W W W W W W t . X X U W W W O X . e W W W W W W W W W O X X X X X X O L W W W W W c.    ",
"    ( R W W W 1.w.[ 7.w W W W W W W W W W W W W W W W W W W W W W W W W W W W W W W W W W W W W W W W W w 7.[ w.1.W W W R (     ",
"      G.W W W 7.o.H.%.M.S :.:.:.:.:.:.:.:.:.:.:.:.:.:.:.:.:.:.:.:.:.:.:.:.:.:.:.:.:.:.:.:.:.:.:.:.:.:.S M.%.H.o.7.W W W G.      ",
"      ^ I W W [ k                                                                                             k [ W W U ^       ",
"        k.W W S.2.g                                                                                         g 2.S.W W k.        ",
"          s W 1.) 0.                                                                                        0.) 1.W d           ",
"           .W W 7.C 3                                                                                     3 C 7.W W  .          ",
"            s.W w q.a.5.j.8.d.h./ / / / / / / / / / / / / / / / / / / / / / / / / / / / / / / / h.d.8.v H r.q.w W s.            ",
"              . W w W ; g...: V Z Z Z Z Z Z Z Z Z Z Z Z Z Z Z Z Z Z Z Z Z Z Z Z Z Z Z Z Z Z Z Z V : ..i.; y w W .               ",
"                4 W W W 7.{ 7.W W W W W W W W W W W W W W W W W W W W W W W W W W W W W W W W W W 7.{ 7.W W W 4                 ",
"                  8 W W W W W W W W W W W W W W W W W W W W W W W W W W W W W W W W W W W W W W W W W W W W 8                   ",
"                    1 W W W W W W W W W W W W W W W W W W W W W W W W W W W W W W W W W W W W W W W W W W 1                     ",
"                      K.W W W W W W W W W W W W W W W W W W W W W W W W W W W W W W W W W W W W W W W W K.                      ",
"                        f.E W W W W W W W W W W W W W W W W W W W W W W W W W W W W W W W W W W W W E f.                        ",
"                          &.r W W W W W W W W W W W W W W W W W W W W W W W W W W W W W W W W W W r &.                          ",
"                              x.A W W W W W W W W W W W W W W W W W W W W W W W W W W W W W W A x.                              ",
"                                _ D.G W W W W W W W W W W W W W W W W W W W W W W W W W W G D._                                 ",
"                                    ' v.j W W W W W W W W W W W W W W W W W W W W W W j v.'                                     ",
"                                          6.K.f W W W W W W W W W W W W W W W W f K.6.                                          ",
"                                                $.t.A.1 u x N G G N x u 1 A.t.$.                                                "
};
