/* XPM */
static char *graphic[] = {
/* width height num_colors chars_per_pixel */
"32 32 133 2", 
/* colors */
"   c None",
".  c #546E7A",
"X  c #546E7A",
"o  c #546E7A",
"O  c #546E7A",
"+  c #546E7A",
"@  c #546E7A",
"#  c #546E7A",
"$  c #546E7A",
"%  c #546E7A",
"&  c #546E7A",
"*  c #546E7A",
"=  c #546E7A",
"-  c #546E7A",
";  c None",
":  c #546E7A",
">  c None",
",  c #546E7A",
"<  c #546E7A",
"1  c #7D919A",
"2  c None",
"3  c #546E7A",
"4  c None",
"5  c #546E7A",
"6  c #57707C",
"7  c #566F7B",
"8  c #546E7A",
"9  c #546E7A",
"0  c #546E7A",
"q  c #44616D",
"w  c #546E7A",
"e  c #546E7A",
"r  c #546E7A",
"t  c #546E7A",
"y  c #546E7A",
"u  c #516B77",
"i  c #546E7A",
"p  c #546E7A",
"a  c #546E7A",
"s  c #546E7A",
"d  c #546E7A",
"f  c #546E7A",
"g  c #546E7A",
"h  c #546E7A",
"j  c #546E7A",
"k  c None",
"l  c #546E7A",
"z  c #546E7A",
"x  c #546E7A",
"c  c #526D79",
"v  c #566F7B",
"b  c #526D79",
"n  c #546E7A",
"m  c #546E7A",
"M  c None",
"N  c #546E7A",
"B  c #546E7A",
"V  c None",
"C  c #546E7A",
"Z  c #7E919B",
"A  c #546E7A",
"S  c #546E7A",
"D  c #546E7A",
"F  c #546E7A",
"G  c #546E7A",
"H  c None",
"J  c None",
"K  c None",
"L  c None",
"P  c #708690",
"I  c None",
"U  c None",
"Y  c #4E6975",
"T  c None",
"R  c None",
"E  c None",
"W  c None",
"Q  c None",
"!  c None",
"~  c None",
"^  c None",
"/  c #56707B",
"(  c None",
")  c None",
"_  c None",
"`  c None",
"'  c None",
"]  c None",
"[  c None",
"{  c None",
"}  c None",
"|  c #4B6773",
" . c None",
".. c None",
"X. c None",
"o. c #536D79",
"O. c #516C78",
"+. c None",
"@. c None",
"#. c #4D6874",
"$. c None",
"%. c None",
"&. c None",
"*. c None",
"=. c None",
"-. c None",
";. c None",
":. c None",
">. c #4A6672",
",. c None",
"<. c None",
"1. c None",
"2. c None",
"3. c #4A6673",
"4. c None",
"5. c None",
"6. c None",
"7. c None",
"8. c #4C6773",
"9. c #476370",
"0. c None",
"q. c #546E7A",
"w. c #546E7A",
"e. c #546E7A",
"r. c #546E7A",
"t. c #708790",
"y. c None",
"u. c #546E7A",
"i. c #7D919A",
"p. c #546E7A",
"a. c #546E7A",
"s. c #546E7A",
"d. c #546E7A",
/* pixels */
"                    U $.$ t x C C x t $ $.U                     ",
"                ^ % S G G G G G G G G G G S % ^                 ",
"              a.G G G G G G G G G G G G G G G G a.              ",
"          Q h G G G G G G G G G G G G G G G G G G h Q           ",
"        ( D u o.G G G G G G G G G G G G G G G G o.u D (         ",
"      k O.9.F v B B B B B B B B B B B B B B B B v F 9.O.k       ",
"      b Y i.4 2 ; J J J J J J J J J J J J J J ; 2 4 i.Y b       ",
"    d.q 1                                             Z q d.    ",
"  W G #.P ) @.y.V E E E E } +._ ] +.} E E E E V y.@.) P #.G W   ",
"  - G 6 | 3./ w l G G G G s 0 z 8 @ 3 G G G G l w / 3.| 6 G -   ",
"L F G G 6.      0.G G G G '   r.7.' ,.G G G G 1.      =.G G F L ",
"%.G G G 7.      7.G G G G `   q.G G G G G G G $ [ { [ $ G G G %.",
"* G G G ,.      ,.G G G G R   2.5 s.: G G G G G G G G G G G G * ",
"a G G G 9 5.6.5.f G G G G * 5.j & &.d.G G G G G G G G G G G G a ",
"n G G G d * = = o e.e.e.e.$ * X + & # e.e.e.e.e.e.e.w.e G G G n ",
"S G G G :.                                            -.G G G A ",
"S G G G ;.                                            <.G G G A ",
"n G G G r p.p.p.p.p.p.p.p.o O . . O o p.p.p.p.$ , , , h G G G n ",
"a G G G G G G G G G G G G i < X X < p G G G G d 4.5.4.8 G G G a ",
"* G G G G G G G G G G G G X.T f g T { G G G G ,.      ,.G G G * ",
"%.G G G $ [ { [ $ G G G G I   u.p.  H G G G G 7.      7.G G G %.",
"K F G G =.      1.G G G G !   m N   R G G G G 0.      6.G G F K ",
"  - G 6 8.>.7 w l G G G G y w G G 0 t G G G G l w 7 >.8.6 G -   ",
"  W G #.t.> @.y.V E E E E  .+.W E +...E E E E V y.@.> t.#.G W   ",
"    d.q 1                                             1 q d.    ",
"      c Y i.M 2 ~ J J J J J J J J J J J J J J ~ 2 *.i.Y c       ",
"      k O.9.F v B B B B B B B B B B B B B B B B v F 9.O.k       ",
"        ( D u o.G G G G G G G G G G G G G G G G o.u D (         ",
"          Q h G G G G G G G G G G G G G G G G G G h Q           ",
"              a.G G G G G G G G G G G G G G G G a.              ",
"                ^ % S G G G G G G G G G G S % ^                 ",
"                    U $.$ t x C C x t $ %.U                     "
};
