/* XPM */
static char *graphic[] = {
/* width height num_colors chars_per_pixel */
"16 16 84 1", 
/* colors */
"  c None",
". c #546E7A",
"X c #546E7A",
"o c None",
"O c #546E7A",
"+ c #546E7A",
"@ c #546E7A",
"# c None",
"$ c None",
"% c None",
"& c #647B86",
"* c None",
"= c #556F7B",
"- c #546E7A",
"; c #546E7A",
": c #7D919A",
"> c None",
", c None",
"< c #546E7A",
"1 c #546E7A",
"2 c #546E7A",
"3 c #546E7A",
"4 c #546E7A",
"5 c #526D79",
"6 c #546E7A",
"7 c #4E6976",
"8 c #546E7A",
"9 c None",
"0 c #546E7A",
"q c #546E7A",
"w c #546E7A",
"e c #546E7A",
"r c #546E7A",
"t c #546E7A",
"y c None",
"u c #7C9099",
"i c None",
"p c None",
"a c None",
"s c None",
"d c #556E7A",
"f c None",
"g c None",
"h c None",
"j c None",
"k c None",
"l c None",
"z c None",
"x c None",
"c c #59727E",
"v c None",
"b c None",
"n c None",
"m c None",
"M c #556E7A",
"N c #526C78",
"B c None",
"V c None",
"C c None",
"Z c #556E7A",
"A c None",
"S c None",
"D c None",
"F c #536D79",
"G c None",
"H c None",
"J c None",
"K c None",
"L c None",
"P c None",
"I c None",
"U c None",
"Y c None",
"T c None",
"R c None",
"E c None",
"W c None",
"Q c None",
"! c None",
"~ c #637B86",
"^ c #546E7A",
"/ c #546E7A",
"( c None",
") c None",
/* pixels */
"    CX2002XC    ",
"   NZttttttZN   ",
"  5cFqqqqqqFc5  ",
" 7u*        *:7 ",
"m=~,%!TGbH!#$Y=B",
"@tJsdtXb1ttMP)tO",
"6tRA4t+G<wttttt3",
"rtIlgfxnipfkVWtr",
"etQSzhmjjmhkvUtr",
"3ttttt;^^-t8DEt6",
"Ot(PMtX//.tdaJt@",
"B=o9#!LWWK!%y&=m",
" 7:*        >:7 ",
"  5cFqqqqqqFc5  ",
"   NZttttttZN   ",
"    CX2002XC    "
};
